<svg width="82" height="90" viewBox="0 0 82 90" fill="none" xmlns="http://www.w3.org/2000/svg">
<g filter="url(#filter0_d)">
<path fill-rule="evenodd" clip-rule="evenodd" d="M22.125 44.25C34.3443 44.25 44.25 34.3443 44.25 22.125C44.25 9.9057 34.3443 0 22.125 0C9.9057 0 0 9.9057 0 22.125C0 34.3443 9.9057 44.25 22.125 44.25Z" transform="translate(19.25 25.8909)" fill="black" fill-opacity="0.01"/>
</g>
<g filter="url(#filter1_d)">
<path fill-rule="evenodd" clip-rule="evenodd" d="M30 60C46.5685 60 60 46.5685 60 30C60 13.4315 46.5685 0 30 0C13.4315 0 0 13.4315 0 30C0 46.5685 13.4315 60 30 60Z" transform="translate(11 10.1409)" fill="#2196F3"/>
<path d="M58.125 30C58.125 45.533 45.533 58.125 30 58.125C14.467 58.125 1.875 45.533 1.875 30C1.875 14.467 14.467 1.875 30 1.875C45.533 1.875 58.125 14.467 58.125 30Z" transform="translate(11 10.1409)" stroke="#42A5F5" stroke-width="3.75"/>
</g>
<mask id="mask0" mask-type="alpha" maskUnits="userSpaceOnUse" x="11" y="10" width="60" height="61">
<path fill-rule="evenodd" clip-rule="evenodd" d="M30 60C46.5685 60 60 46.5685 60 30C60 13.4315 46.5685 0 30 0C13.4315 0 0 13.4315 0 30C0 46.5685 13.4315 60 30 60Z" transform="translate(11 10.1409)" fill="white"/>
<path d="M58.125 30C58.125 45.533 45.533 58.125 30 58.125C14.467 58.125 1.875 45.533 1.875 30C1.875 14.467 14.467 1.875 30 1.875C45.533 1.875 58.125 14.467 58.125 30Z" transform="translate(11 10.1409)" stroke="white" stroke-width="3.75"/>
</mask>
<g mask="url(#mask0)">
<path d="M0.463983 1.875H54.286" transform="translate(13.25 31.1409)" stroke="#42A5F5" stroke-width="3.75" stroke-linecap="square"/>
<path d="M0.463983 1.875H54.286" transform="translate(13.25 46.8909)" stroke="#42A5F5" stroke-width="3.75" stroke-linecap="square"/>
<path d="M9.75 0C9.75 0 -0.212242 11.5775 0.00345267 26.25C0.219148 40.9225 9.75 51 9.75 51" transform="translate(30.5 14.6409)" stroke="#42A5F5" stroke-width="3.75" stroke-linecap="round" stroke-linejoin="round"/>
<path d="M9.75 0C9.75 0 -0.212242 11.5775 0.00345267 26.25C0.219148 40.9225 9.75 51 9.75 51" transform="translate(50.75 14.6409) scale(-1 1)" stroke="#42A5F5" stroke-width="3.75" stroke-linecap="round" stroke-linejoin="round"/>
</g>
<g filter="url(#filter2_d)">
<path fill-rule="evenodd" clip-rule="evenodd" d="M0.114253 19.2333C0.17538 19.1342 0.263142 19.0515 0.370526 18.9964L15.5068 11.2259L15.5068 4.16151C15.5069 4.02413 15.5238 3.88832 15.5592 3.75722C15.5832 3.66776 15.616 3.5807 15.6576 3.49689C16.1103 2.58449 17.5055 -7.54899e-05 18.7789 -9.8491e-05C20.0525 5.78228e-07 21.4465 2.58497 21.899 3.49711C21.9559 3.61188 21.9961 3.73275 22.0205 3.85694C22.04 3.95655 22.0494 4.0584 22.0495 4.16122L22.0494 11.1769L37.2809 18.9964C37.494 19.1058 37.6297 19.3239 37.6336 19.5637L37.6568 21.0196C37.66 21.2115 37.578 21.3949 37.433 21.5205L36.6765 22.1771C36.6097 22.2352 36.5323 22.2785 36.4494 22.3049C36.3753 22.3287 36.2971 22.3392 36.2179 22.3352L22.0494 21.6121L22.0493 28.9662L25.7518 31.8971C26.008 32.0998 26.0734 32.4615 25.9048 32.7415L25.6476 33.168C25.5176 33.3837 25.2744 33.5048 25.0239 33.4786L20.6508 33.0204C20.0698 34.1054 19.3876 35.0451 18.768 35.0451C18.1489 35.0451 17.4711 34.1073 16.8946 33.0238L12.5551 33.4785C12.3046 33.5047 12.0615 33.3838 11.9313 33.168L11.6743 32.7415C11.5055 32.4616 11.5711 32.0999 11.8272 31.897L15.5067 28.9843L15.5068 21.617L1.4334 22.3351C1.26581 22.3437 1.10148 22.287 0.974697 22.177L0.218141 21.5206C0.0731653 21.3948 -0.00853805 21.2116 -0.0055038 21.0198L0.017696 19.5636C0.0195886 19.4446 0.0539199 19.3309 0.114253 19.2333Z" transform="translate(47.0452 13.6584) rotate(60)" fill="white"/>
<mask id="mask1" mask-type="alpha" maskUnits="userSpaceOnUse" x="24" y="23" width="33" height="34">
<path fill-rule="evenodd" clip-rule="evenodd" d="M0.114253 19.2333C0.17538 19.1342 0.263142 19.0515 0.370526 18.9964L15.5068 11.2259L15.5068 4.16151C15.5069 4.02413 15.5238 3.88832 15.5592 3.75722C15.5832 3.66776 15.616 3.5807 15.6576 3.49689C16.1103 2.58449 17.5055 -7.54899e-05 18.7789 -9.8491e-05C20.0525 5.78228e-07 21.4465 2.58497 21.899 3.49711C21.9559 3.61188 21.9961 3.73275 22.0205 3.85694C22.04 3.95655 22.0494 4.0584 22.0495 4.16122L22.0494 11.1769L37.2809 18.9964C37.494 19.1058 37.6297 19.3239 37.6336 19.5637L37.6568 21.0196C37.66 21.2115 37.578 21.3949 37.433 21.5205L36.6765 22.1771C36.6097 22.2352 36.5323 22.2785 36.4494 22.3049C36.3753 22.3287 36.2971 22.3392 36.2179 22.3352L22.0494 21.6121L22.0493 28.9662L25.7518 31.8971C26.008 32.0998 26.0734 32.4615 25.9048 32.7415L25.6476 33.168C25.5176 33.3837 25.2744 33.5048 25.0239 33.4786L20.6508 33.0204C20.0698 34.1054 19.3876 35.0451 18.768 35.0451C18.1489 35.0451 17.4711 34.1073 16.8946 33.0238L12.5551 33.4785C12.3046 33.5047 12.0615 33.3838 11.9313 33.168L11.6743 32.7415C11.5055 32.4616 11.5711 32.0999 11.8272 31.897L15.5067 28.9843L15.5068 21.617L1.4334 22.3351C1.26581 22.3437 1.10148 22.287 0.974697 22.177L0.218141 21.5206C0.0731653 21.3948 -0.00853805 21.2116 -0.0055038 21.0198L0.017696 19.5636C0.0195886 19.4446 0.0539199 19.3309 0.114253 19.2333Z" transform="translate(47.0452 13.6584) rotate(60)" fill="white"/>
</mask>
<g mask="url(#mask1)">
<path fill-rule="evenodd" clip-rule="evenodd" d="M0 0H1.30853V12.4084H0V0Z" transform="translate(45.536 30.9246) rotate(60)" fill="#EBECF2"/>
<path fill-rule="evenodd" clip-rule="evenodd" d="M0.0281649 8.64231C0.0320039 8.40261 0.167603 8.18451 0.380878 8.07502L16.1101 0V10.6653L1.44383 11.4138C1.27626 11.4223 1.11189 11.3657 0.985155 11.2557L0.228552 10.5992C0.0836632 10.4735 0.00177379 10.2901 0.00484564 10.0983L0.0281649 8.64231Z" transform="translate(56.4178 51.7351) scale(-1 1) rotate(-60)" fill="#DEE1E3"/>
<path opacity="0.4" fill-rule="evenodd" clip-rule="evenodd" d="M-0.0455235 4.15063L-0.0454954 4.25312L4.39229 4.71801C4.64273 4.7442 4.88598 4.62317 5.01591 4.4074L5.27312 3.98094C5.4418 3.70099 5.37634 3.33928 5.12014 3.13654L1.20947 0.0408762L1.20954 0.575418C1.20947 0.63951 1.20607 0.703512 1.1987 0.767056C1.18732 0.867331 1.16677 0.966398 1.13651 1.06324C0.967776 1.60111 0.521622 2.9559 -0.0455235 4.15063Z" transform="translate(32.4535 45.9062) rotate(60)" fill="#DEE1E3"/>
<path fill-rule="evenodd" clip-rule="evenodd" d="M0.000119173 10.5418L0 0L1.7914 0.919668L3.74681 10.733L0.000119173 10.5418Z" transform="translate(48.3776 38.0833) rotate(60)" fill="#C5C6CC"/>
<path fill-rule="evenodd" clip-rule="evenodd" d="M3.33437 0.655679V35.0553C3.33437 35.0553 1.519 35.0222 0.0529702 35.0222C0.0352222 35.0222 0.0175653 35.0217 0 35.0207C0.760402 33.8992 2.02584 31.4875 2.02584 28.44V4.62487C2.02584 1.97874 0.822703 0.635989 0.339415 0C1.69161 0.228134 3.33437 0.655679 3.33437 0.655679Z" transform="translate(56.3828 29.8777) rotate(60)" fill="#DEE1E3"/>
</g>
</g>
<defs>
<filter id="filter0_d" x="8.25" y="22.8909" width="66.25" height="66.25" filterUnits="userSpaceOnUse" color-interpolation-filters="sRGB">
<feFlood flood-opacity="0" result="BackgroundImageFix"/>
<feColorMatrix in="SourceAlpha" type="matrix" values="0 0 0 0 0 0 0 0 0 0 0 0 0 0 0 0 0 0 255 0"/>
<feOffset dy="8"/>
<feGaussianBlur stdDeviation="5.5"/>
<feColorMatrix type="matrix" values="0 0 0 0 0.215686 0 0 0 0 0.407843 0 0 0 0 0.556863 0 0 0 0.25 0"/>
<feBlend mode="normal" in2="BackgroundImageFix" result="effect1_dropShadow"/>
<feBlend mode="normal" in="SourceGraphic" in2="effect1_dropShadow" result="shape"/>
</filter>
<filter id="filter1_d" x="0" y="0.140869" width="82" height="82" filterUnits="userSpaceOnUse" color-interpolation-filters="sRGB">
<feFlood flood-opacity="0" result="BackgroundImageFix"/>
<feColorMatrix in="SourceAlpha" type="matrix" values="0 0 0 0 0 0 0 0 0 0 0 0 0 0 0 0 0 0 255 0"/>
<feOffset dy="1"/>
<feGaussianBlur stdDeviation="5.5"/>
<feColorMatrix type="matrix" values="0 0 0 0 0.215686 0 0 0 0 0.407843 0 0 0 0 0.556863 0 0 0 0.3 0"/>
<feBlend mode="normal" in2="BackgroundImageFix" result="effect1_dropShadow"/>
<feBlend mode="normal" in="SourceGraphic" in2="effect1_dropShadow" result="shape"/>
</filter>
<filter id="filter2_d" x="13.2056" y="16.3738" width="54.3806" height="55.4986" filterUnits="userSpaceOnUse" color-interpolation-filters="sRGB">
<feFlood flood-opacity="0" result="BackgroundImageFix"/>
<feColorMatrix in="SourceAlpha" type="matrix" values="0 0 0 0 0 0 0 0 0 0 0 0 0 0 0 0 0 0 255 0"/>
<feOffset dy="4"/>
<feGaussianBlur stdDeviation="5.5"/>
<feColorMatrix type="matrix" values="0 0 0 0 0 0 0 0 0 0 0 0 0 0 0 0 0 0 0.35 0"/>
<feBlend mode="normal" in2="BackgroundImageFix" result="effect1_dropShadow"/>
<feBlend mode="normal" in="SourceGraphic" in2="effect1_dropShadow" result="shape"/>
</filter>
</defs>
</svg>
